<svg xmlns="http://www.w3.org/2000/svg" version="1.1" xmlns:xlink="http://www.w3.org/1999/xlink" viewBox="0 0 200 200"><rect width="200" height="200" fill="url('#gradient')"></rect><defs><linearGradient id="gradient" gradientTransform="rotate(60 0.5 0.5)"><stop offset="0%" stop-color="#0451a3"></stop><stop offset="100%" stop-color="#66008b"></stop></linearGradient></defs><g><g fill="#ffffff" transform="matrix(2.1953700535979017,0,0,2.1953700535979017,4.522145776375353,116.24808169062699)" stroke="#ffffff" stroke-width="0"><path d="M9.17-4.81L12.58-4.81Q12.51-3.33 11.78-2.19Q11.04-1.05 9.72-0.43Q8.40 0.20 6.70 0.20L6.70 0.20Q3.90 0.20 2.29-1.63Q0.67-3.46 0.67-6.79L0.67-6.79L0.67-7.49Q0.67-9.58 1.40-11.15Q2.13-12.71 3.50-13.57Q4.86-14.42 6.66-14.42L6.66-14.42Q9.25-14.42 10.82-13.06Q12.39-11.70 12.61-9.31L12.61-9.31L9.19-9.31Q9.15-10.61 8.54-11.17Q7.92-11.74 6.66-11.74L6.66-11.74Q5.38-11.74 4.79-10.78Q4.19-9.82 4.16-7.72L4.16-7.72L4.16-6.72Q4.16-4.44 4.73-3.47Q5.30-2.49 6.70-2.49L6.70-2.49Q7.88-2.49 8.51-3.05Q9.13-3.60 9.17-4.81L9.17-4.81ZM17.27-15L17.27-9.43Q18.32-10.76 19.96-10.76L19.96-10.76Q21.71-10.76 22.60-9.73Q23.49-8.69 23.51-6.67L23.51-6.67L23.51 0L20.21 0L20.21-6.59Q20.21-7.43 19.86-7.83Q19.52-8.22 18.70-8.22L18.70-8.22Q17.69-8.22 17.27-7.58L17.27-7.58L17.27 0L13.97 0L13.97-15L17.27-15ZM31.79-10.64L31.73-7.59L30.64-7.67Q29.09-7.67 28.65-6.69L28.65-6.69L28.65 0L25.36 0L25.36-10.57L28.45-10.57L28.55-9.21Q29.38-10.76 30.87-10.76L30.87-10.76Q31.40-10.76 31.79-10.64L31.79-10.64ZM32.16-4.82L32.15-5.38Q32.15-6.96 32.76-8.20Q33.38-9.43 34.53-10.10Q35.68-10.76 37.24-10.76L37.24-10.76Q39.61-10.76 40.98-9.29Q42.34-7.82 42.34-5.29L42.34-5.29L42.34-5.18Q42.34-2.71 40.97-1.25Q39.60 0.20 37.26 0.20L37.26 0.20Q35 0.20 33.63-1.16Q32.27-2.51 32.16-4.82L32.16-4.82ZM35.45-5.77L35.44-5.18Q35.44-3.71 35.90-3.03Q36.36-2.34 37.26-2.34L37.26-2.34Q39.01-2.34 39.05-5.05L39.05-5.05L39.05-5.38Q39.05-8.22 37.24-8.22L37.24-8.22Q35.59-8.22 35.45-5.77L35.45-5.77ZM43.73-10.57L46.82-10.57L46.92-9.33Q48.02-10.76 49.94-10.76L49.94-10.76Q51.59-10.76 52.41-9.78Q53.22-8.79 53.25-6.81L53.25-6.81L53.25 0L49.95 0L49.95-6.67Q49.95-7.47 49.63-7.85Q49.31-8.22 48.46-8.22L48.46-8.22Q47.49-8.22 47.02-7.46L47.02-7.46L47.02 0L43.73 0L43.73-10.57ZM54.67-4.82L54.66-5.38Q54.66-6.96 55.27-8.20Q55.89-9.43 57.04-10.10Q58.19-10.76 59.75-10.76L59.75-10.76Q62.12-10.76 63.49-9.29Q64.85-7.82 64.85-5.29L64.85-5.29L64.85-5.18Q64.85-2.71 63.48-1.25Q62.11 0.20 59.77 0.20L59.77 0.20Q57.51 0.20 56.14-1.16Q54.78-2.51 54.67-4.82L54.67-4.82ZM57.96-5.77L57.95-5.18Q57.95-3.71 58.41-3.03Q58.87-2.34 59.77-2.34L59.77-2.34Q61.52-2.34 61.56-5.05L61.56-5.05L61.56-5.38Q61.56-8.22 59.75-8.22L59.75-8.22Q58.10-8.22 57.96-5.77L57.96-5.77ZM72.70 0L72.60-1.14Q71.55 0.20 69.78 0.20L69.78 0.20Q68.04 0.20 67.14-0.82Q66.25-1.83 66.25-3.72L66.25-3.72L66.25-10.57L69.54-10.57L69.54-3.70Q69.54-2.34 70.86-2.34L70.86-2.34Q71.99-2.34 72.47-3.15L72.47-3.15L72.47-10.57L75.78-10.57L75.78 0L72.70 0ZM83.12-2.97L83.12-2.97Q83.12-3.39 82.68-3.64Q82.24-3.90 81.01-4.17Q79.78-4.44 78.97-4.89Q78.17-5.33 77.75-5.97Q77.33-6.60 77.33-7.42L77.33-7.42Q77.33-8.88 78.54-9.82Q79.74-10.76 81.68-10.76L81.68-10.76Q83.77-10.76 85.04-9.81Q86.31-8.87 86.31-7.32L86.31-7.32L83.01-7.32Q83.01-8.59 81.67-8.59L81.67-8.59Q81.15-8.59 80.80-8.31Q80.45-8.02 80.45-7.59L80.45-7.59Q80.45-7.15 80.88-6.88Q81.31-6.60 82.25-6.43Q83.19-6.25 83.91-6.01L83.91-6.01Q86.29-5.19 86.29-3.07L86.29-3.07Q86.29-1.62 85.00-0.71Q83.72 0.20 81.68 0.20L81.68 0.20Q80.32 0.20 79.26-0.29Q78.19-0.78 77.60-1.62Q77.00-2.46 77.00-3.39L77.00-3.39L80.08-3.39Q80.10-2.66 80.57-2.32Q81.04-1.98 81.77-1.98L81.77-1.98Q82.44-1.98 82.78-2.26Q83.12-2.53 83.12-2.97Z"></path></g></g></svg>